<svg xmlns="http://www.w3.org/2000/svg" viewBox="8 2 84 96">
  <polygon points="50,5 88,27 88,73 50,95 12,73 12,27" fill="none" stroke="#4a9eff" stroke-width="4"/>
  <polygon points="50,15 78,31 78,69 50,85 22,69 22,31" fill="#4a9eff" opacity="0.3"/>
  <path d="M50 22 C50 22 30 50 30 65 C30 76 39 84 50 84 C61 84 70 76 70 65 C70 50 50 22 50 22Z" fill="#00b4a0"/>
  <path d="M40 57 Q50 50 60 57" fill="none" stroke="white" stroke-width="3.5" stroke-linecap="round"/>
  <path d="M35 68 Q50 58 65 68" fill="none" stroke="white" stroke-width="3" stroke-linecap="round" opacity="0.7"/>
</svg>